HIERARCHY
ROOT Hips
{
 OFFSET 0.000000 0.000000 0.000000
 CHANNELS 6 Xposition Yposition Zposition Yrotation Xrotation Zrotation
 JOINT Chest
 {
  OFFSET 0.000000 14.634200 -0.016200
  CHANNELS 3 Yrotation Xrotation Zrotation
  JOINT Chest2
  {
   OFFSET 0.000000 8.932900 0.033000
   CHANNELS 3 Yrotation Xrotation Zrotation
   JOINT Chest3
   {
    OFFSET 0.000000 8.892300 0.000000
    CHANNELS 3 Yrotation Xrotation Zrotation
    JOINT Chest4
    {
     OFFSET 0.000000 8.883200 0.000000
     CHANNELS 3 Yrotation Xrotation Zrotation
     JOINT Neck
     {
      OFFSET 0.000000 13.173600 0.000000
      CHANNELS 3 Yrotation Xrotation Zrotation
      JOINT Head
      {
       OFFSET 0.000000 8.324600 0.069800
       CHANNELS 3 Yrotation Xrotation Zrotation
       End Site
       {
        OFFSET 0.000000 15.692400 0.036900
       }
      }
     }
     JOINT RightCollar
     {
      OFFSET -2.619200 8.772200 0.000000
      CHANNELS 3 Yrotation Xrotation Zrotation
      JOINT RightShoulder
      {
       OFFSET -12.922000 0.000000 0.000000
       CHANNELS 3 Yrotation Xrotation Zrotation
       JOINT RightElbow
       {
        OFFSET 0.000000 -27.880900 0.000000
        CHANNELS 3 Yrotation Xrotation Zrotation
        JOINT RightWrist
        {
         OFFSET 0.000000 -22.758700 0.008200
         CHANNELS 3 Yrotation Xrotation Zrotation
         End Site
         {
          OFFSET 0.000000 -16.965000 0.000000
         }
        }
       }
      }
     }
     JOINT LeftCollar
     {
      OFFSET 2.619200 8.772200 0.000000
      CHANNELS 3 Yrotation Xrotation Zrotation
      JOINT LeftShoulder
      {
       OFFSET 12.922000 0.000000 0.000000
       CHANNELS 3 Yrotation Xrotation Zrotation
       JOINT LeftElbow
       {
        OFFSET 0.000000 -27.880900 0.000000
        CHANNELS 3 Yrotation Xrotation Zrotation
        JOINT LeftWrist
        {
         OFFSET 0.000000 -22.758700 0.008200
         CHANNELS 3 Yrotation Xrotation Zrotation
         End Site
         {
          OFFSET 0.000000 -16.965000 0.000000
         }
        }
       }
      }
     }
    }
   }
  }
 }
 JOINT RightHip
 {
  OFFSET -12.026800 0.080100 0.008100
  CHANNELS 3 Yrotation Xrotation Zrotation
  JOINT RightKnee
  {
   OFFSET 0.000000 -42.600800 -0.000200
   CHANNELS 3 Yrotation Xrotation Zrotation
   JOINT RightAnkle
   {
    OFFSET 0.000000 -38.219300 0.054300
    CHANNELS 3 Yrotation Xrotation Zrotation
    JOINT RightToe
    {
     OFFSET 0.000000 -9.685800 15.804700
     CHANNELS 3 Yrotation Xrotation Zrotation
     End Site
     {
      OFFSET 0.000000 -1.422300 5.761700
     }
    }
   }
  }
 }
 JOINT LeftHip
 {
  OFFSET 12.026800 0.080100 0.008100
  CHANNELS 3 Yrotation Xrotation Zrotation
  JOINT LeftKnee
  {
   OFFSET 0.000000 -42.600800 -0.000200
   CHANNELS 3 Yrotation Xrotation Zrotation
   JOINT LeftAnkle
   {
    OFFSET 0.000000 -38.219300 0.054300
    CHANNELS 3 Yrotation Xrotation Zrotation
    JOINT LeftToe
    {
     OFFSET 0.000000 -9.685800 15.804700
     CHANNELS 3 Yrotation Xrotation Zrotation
     End Site
     {
      OFFSET 0.000000 -1.422300 5.761700
     }
    }
   }
  }
 }
}
MOTION
Frames: 15
Frame Time: 0.008333
-9.512757 129.303539 16.534544 168.026667 -20.788646 -3.907334 -6.532177 10.229304 5.717001 -0.607789 0.824102 0.497042 -0.979397 1.392631 0.868395 -5.885548 9.203788 5.222737 -11.182522 29.544094 6.329699 -14.367008 8.740777 9.829760 5.792383 -3.896878 -4.259280 31.508119 -35.796721 -21.096751 54.180086 -44.631735 -20.866715 7.771748 -8.435389 -46.161760 -11.297115 -4.080137 0.631820 0.667166 -27.516602 34.663291 -76.359722 -82.485004 47.723862 -11.195088 -19.045775 20.656711 2.305813 -54.681193 12.906403 -42.827047 80.062330 -45.999190 -6.262471 -14.299505 10.127098 0.001537 -0.008951 0.000942 21.428102 -45.033322 -16.639418 49.400676 75.043242 65.960378 6.919267 -13.323103 -7.644053 0.021793 -0.005221 0.013355
-9.507209 129.307008 16.542403 167.990741 -20.825412 -3.862786 -6.432106 10.246475 5.728754 -0.587654 0.821944 0.505602 -0.961782 1.394403 0.868094 -5.817887 9.228045 5.226676 -11.188646 29.492071 6.377907 -14.386142 8.678744 9.888211 5.920080 -3.976023 -4.292965 32.325498 -35.522191 -21.948389 53.666421 -43.664188 -19.938850 8.181338 -8.778635 -46.401040 -11.245727 -4.154392 0.632034 0.461178 -27.488864 34.760652 -77.682229 -82.580155 48.576933 -11.184207 -19.653540 20.846693 2.255046 -54.644751 12.909548 -42.686180 80.087883 -45.887954 -6.235640 -14.303065 10.128629 -0.010181 -0.011922 -0.006239 21.421668 -44.996267 -16.654640 49.450589 75.031634 66.006164 6.948039 -13.310896 -7.664276 0.019887 -0.009766 0.012187
-9.500147 129.311160 16.549202 167.978284 -20.866098 -3.828548 -6.325014 10.274347 5.746808 -0.557386 0.821010 0.513504 -0.941636 1.396124 0.866799 -5.748703 9.253827 5.228301 -11.201208 29.425636 6.439594 -14.416536 8.600500 9.964217 5.995568 -4.041953 -4.338426 32.955530 -35.200133 -22.579495 53.563348 -42.848005 -19.513579 8.504759 -9.209602 -47.076324 -11.217641 -4.225684 0.636600 0.206881 -27.463934 34.879980 -79.394893 -82.653797 49.867163 -11.169708 -20.147794 20.939634 2.224862 -54.597839 12.906871 -42.736978 80.085529 -45.941599 -6.226966 -14.322160 10.163600 -0.001412 -0.009134 -0.000865 21.385575 -44.958529 -16.659989 49.503249 75.016039 66.042633 6.975999 -13.299096 -7.673451 0.015138 -0.011813 0.009276
-9.498162 129.314557 16.556082 167.973347 -20.899851 -3.776451 -6.206061 10.299493 5.749245 -0.546690 0.821903 0.512301 -0.923572 1.397813 0.864961 -5.644928 9.283195 5.235989 -11.220608 29.345744 6.510433 -14.457507 8.506848 10.052806 6.014713 -4.087184 -4.391954 33.395103 -34.838204 -22.976078 53.719447 -42.187150 -19.487295 8.772113 -9.875785 -48.003845 -11.216268 -4.286107 0.642371 -0.071774 -27.444818 35.027558 -81.550172 -82.697816 51.646273 -11.146454 -20.557684 20.924777 2.202466 -54.553749 12.891236 -42.680968 80.094808 -45.934742 -6.226722 -14.332662 10.189445 -0.006239 -0.005921 -0.003824 21.303939 -44.935771 -16.666649 49.665226 74.984990 66.132067 6.991020 -13.291470 -7.664689 -0.003740 -0.016755 -0.002292
-9.493851 129.318778 16.561526 167.983872 -20.938772 -3.738953 -6.084273 10.337395 5.762672 -0.535838 0.823323 0.511037 -0.905144 1.400418 0.863047 -5.537319 9.316874 5.242286 -11.243946 29.255454 6.585568 -14.504259 8.400749 10.147532 5.977279 -4.109171 -4.448825 33.684208 -34.428660 -23.162601 53.986953 -41.695813 -19.753047 9.054475 -10.696169 -49.094289 -11.240328 -4.334602 0.644531 -0.350667 -27.422049 35.205602 -84.158474 -82.712191 53.929674 -11.122693 -20.939757 20.807231 2.145049 -54.499568 12.902113 -42.724975 80.097561 -46.021592 -6.214308 -14.350410 10.210965 -0.004007 -0.002171 -0.002456 21.261089 -44.900354 -16.676607 49.725085 74.977034 66.158767 7.008117 -13.289704 -7.660516 -0.004586 -0.019048 -0.002810
-9.491380 129.322853 16.566143 168.008128 -20.975451 -3.702757 -5.970450 10.376742 5.771833 -0.525712 0.825378 0.509905 -0.888081 1.404001 0.861346 -5.434916 9.353301 5.246941 -11.264735 29.160165 6.659475 -14.547579 8.287439 10.240181 5.887990 -4.105815 -4.503981 33.860398 -33.965398 -23.179520 54.309798 -41.376708 -20.250534 9.212099 -11.249800 -50.298917 -11.282508 -4.370416 0.638678 -0.603052 -27.382705 35.403719 -87.275889 -82.687718 56.774280 -11.127271 -21.343827 20.624209 2.105952 -54.448358 12.891287 -42.790622 80.102277 -46.126002 -6.208165 -14.366598 10.249454 -0.004075 0.000797 -0.002498 21.239838 -44.856967 -16.704212 49.722318 74.969783 66.145775 7.006322 -13.288251 -7.658760 -0.001631 -0.019502 -0.001000
-9.491733 129.325834 16.571659 168.036349 -21.001256 -3.664838 -5.867709 10.405487 5.776027 -0.584556 0.816992 0.494392 -0.805746 1.418992 0.873562 -5.345753 9.386888 5.250912 -11.278992 29.067193 6.723359 -14.580274 8.174569 10.319280 5.756137 -4.069351 -4.557540 33.920360 -33.475055 -23.065683 54.700771 -41.215239 -20.916973 9.179877 -11.602401 -51.543046 -11.335210 -4.389628 0.620099 -0.804196 -27.318386 35.603944 -90.893588 -82.606679 60.160350 -11.187102 -21.786863 20.452111 2.120967 -54.415319 12.834270 -42.831625 80.105697 -46.181876 -6.202917 -14.373144 10.267688 -0.009423 0.000162 -0.005775 21.221361 -44.822141 -16.739551 49.752408 74.939996 66.145228 6.996587 -13.297122 -7.633360 -0.002774 -0.020430 -0.001700
-9.493093 129.328950 16.574843 168.070388 -21.029625 -3.632664 -5.783945 10.434421 5.776350 -0.541242 0.824590 0.501439 -0.830497 1.415055 0.865045 -5.274562 9.412222 5.253316 -11.283639 28.985099 6.772097 -14.597338 8.072295 10.378036 5.588280 -3.993546 -4.602058 33.823280 -33.019555 -22.847915 55.172917 -41.228434 -21.637697 9.066502 -12.049757 -52.815494 -11.390239 -4.386307 0.594496 -0.942661 -27.231197 35.787855 -94.828654 -82.461074 63.884380 -11.300226 -22.262789 20.370602 2.070570 -54.371941 12.838647 -42.889665 80.111639 -46.294514 -6.205404 -14.385076 10.291379 -0.013905 -0.002066 -0.008522 21.186570 -44.791594 -16.757476 49.792901 74.937942 66.155566 6.992345 -13.304514 -7.628891 -0.000361 -0.018145 -0.000221
-9.496407 129.331206 16.577504 168.112854 -21.050660 -3.606685 -5.723735 10.450507 5.767445 -0.504810 0.829474 0.507017 -0.852884 1.411201 0.856709 -5.298497 9.419584 5.253377 -11.211231 28.933097 6.787523 -14.594461 7.990522 10.418344 5.460683 -3.866611 -4.636170 33.521731 -32.661161 -22.531632 55.729138 -41.433575 -22.288457 8.983272 -12.671602 -54.199626 -11.365652 -4.344320 0.558555 -1.021136 -27.128560 35.943757 -98.814914 -82.263242 67.662816 -11.445763 -22.749665 20.425345 2.037387 -54.340169 12.832315 -42.917454 80.120708 -46.367207 -6.212579 -14.379457 10.323227 -0.012222 -0.001658 -0.007490 21.153432 -44.760701 -16.774499 49.791619 74.919468 66.121347 6.969975 -13.307181 -7.612511 -0.002377 -0.008755 -0.001457
-9.500661 129.332626 16.579574 168.161544 -21.064559 -3.590491 -5.685752 10.456371 5.750553 -0.541861 0.829519 0.508256 -0.806169 1.410247 0.849963 -5.308763 9.432345 5.261644 -11.154683 28.883855 6.787256 -14.566555 7.933191 10.443890 5.276621 -3.735719 -4.651441 33.002726 -32.433021 -22.107762 56.373486 -41.811147 -22.804682 9.045330 -13.463865 -55.817722 -11.358094 -4.297799 0.532332 -1.053987 -27.016500 36.071722 -102.581991 -82.037437 71.218403 -11.599245 -23.222362 20.616387 2.017088 -54.319369 12.827665 -42.818569 80.155921 -46.315545 -6.262587 -14.372217 10.345637 -0.017307 -0.004459 -0.010606 21.124655 -44.737873 -16.780395 49.768562 74.912209 66.068540 6.952198 -13.322377 -7.603147 0.003982 -0.002833 0.002440
-9.500172 129.333243 16.583091 168.196319 -21.068970 -3.599600 -5.661039 10.457241 5.752131 -0.553106 0.827636 0.513457 -0.778393 1.410925 0.832417 -5.200324 9.434984 5.231258 -11.179245 28.856707 6.844764 -14.507228 7.897695 10.457517 4.941411 -3.617706 -4.583777 32.302053 -32.328737 -21.580355 57.107297 -42.315879 -23.189828 9.315288 -14.413849 -57.764720 -11.481644 -4.251513 0.586289 -1.043335 -26.880685 36.171828 -105.924708 -81.807115 74.351063 -11.731722 -23.673528 20.898666 1.980258 -54.309236 12.910637 -42.907641 80.143121 -46.446163 -6.337092 -14.358665 10.356615 0.001431 -0.007085 0.000877 21.096109 -44.736857 -16.728509 49.667734 74.927231 65.939885 6.914949 -13.335751 -7.595854 0.018246 0.004219 0.011182
-9.510371 129.331749 16.585722 168.265797 -21.056132 -3.588620 -5.682321 10.447786 5.704832 -0.530353 0.820881 0.521238 -0.801709 1.414904 0.817424 -5.187842 9.432498 5.196009 -11.110827 28.852311 6.880670 -14.412972 7.878112 10.461752 4.682982 -3.505628 -4.501721 31.489257 -32.313374 -20.983354 57.940897 -42.886789 -23.503310 9.802986 -15.507853 -60.083159 -11.524196 -4.226358 0.653333 -0.994384 -26.702334 36.247269 -108.727026 -81.592194 76.958447 -11.817265 -24.107054 21.206485 1.956242 -54.312157 12.898534 -42.887137 80.146321 -46.453579 -6.382100 -14.350820 10.357146 0.007329 -0.008323 0.004491 21.072923 -44.733749 -16.765100 49.667255 74.882093 65.886859 6.878360 -13.342814 -7.552464 0.000854 0.013028 0.000524
-9.517943 129.330358 16.587246 168.336882 -21.042777 -3.594079 -5.710296 10.448379 5.660916 -0.522806 0.810225 0.528238 -0.830892 1.414629 0.826572 -5.215442 9.438131 5.145004 -11.025760 28.854364 6.929123 -14.271485 7.861592 10.415196 4.463275 -3.415137 -4.410589 30.651928 -32.352762 -20.370699 58.901495 -43.466493 -23.847564 10.484733 -16.652439 -62.736392 -11.476817 -4.171165 0.695792 -0.992595 -26.546545 36.341984 -110.940729 -81.416553 79.001848 -11.847049 -24.522064 21.483789 1.896408 -54.315053 12.920027 -42.870893 80.143962 -46.465557 -6.377880 -14.329749 10.264620 0.008144 -0.004453 0.004991 21.035638 -44.735237 -16.783563 49.637955 74.866124 65.835090 6.877164 -13.348843 -7.554028 -0.002549 0.020951 -0.001562
-9.521704 129.329420 16.587970 168.370812 -21.033015 -3.604128 -5.735045 10.457914 5.633956 -0.499483 0.808402 0.524197 -0.859017 1.421384 0.815236 -5.263808 9.435570 5.121577 -10.906315 28.856252 6.968141 -14.115892 7.851252 10.367510 4.276991 -3.347556 -4.312647 29.865267 -32.423090 -19.793535 60.001213 -44.007721 -24.303835 11.300753 -17.732677 -65.618348 -11.409285 -4.106663 0.739637 -0.984424 -26.396298 36.439268 -112.644263 -81.299922 80.560026 -11.845422 -24.907069 21.696341 1.837771 -54.314625 12.973371 -42.867737 80.131577 -46.488924 -6.392276 -14.319353 10.237541 0.009216 -0.004951 0.005648 21.056228 -44.738919 -16.761536 49.489839 74.904156 65.700169 6.823074 -13.355439 -7.563751 0.010279 0.023324 0.006301
-9.526112 129.328746 16.587558 168.402970 -21.024539 -3.611651 -5.778554 10.471186 5.604489 -0.486120 0.807646 0.517571 -0.876997 1.424607 0.814141 -5.324766 9.439595 5.093439 -10.756211 28.858789 6.967930 -13.956749 7.843260 10.352857 4.130432 -3.305595 -4.216259 29.184492 -32.497668 -19.288608 61.213953 -44.458603 -24.900030 12.171447 -18.711318 -68.603355 -11.337808 -4.074075 0.787543 -0.955374 -26.216187 36.528993 -114.010544 -81.225699 81.798251 -11.853915 -25.255362 21.833895 1.782430 -54.314044 13.017537 -42.911323 80.114247 -46.554845 -6.391159 -14.312356 10.205470 0.010886 -0.004790 0.006671 21.076932 -44.736241 -16.754895 49.363495 74.927345 65.588675 6.789514 -13.356968 -7.579997 0.016498 0.024371 0.010113
